<svg width="196" height="270" viewBox="0 0 196 270" fill="none" xmlns="http://www.w3.org/2000/svg"
    alt="Не найдено" class="empty_icon">
    <path
        d="M112.565 34.497C106.047 49.706 89.29 60.75 81.777 64.371c1.629 1.177 4.888 3.965 4.888 5.703 0 1.738-4.345.724-6.518 0 .543 1.81 1.304 5.703 0 6.79-1.304 1.086-3.802-4.074-4.888-6.79-.272 2.535-1.413 7.441-3.802 6.79-2.39-.652-.996-8.6 0-12.493l-.117-.188c-4.046-6.528-13.198-21.294-14.919-29.686-2.172-10.592-3.703-29.874 9.604-33.133 10.646-2.607 18.196 9.415 20.64 15.752 3.259-4.255 8.364-12.806 19.011-12.493 9.233.272 15.036 10.863 6.889 29.874z"
        fill="#fff" stroke="#26A9E0" stroke-linecap="round" stroke-linejoin="round"></path>
    <path
        d="M34.163 238.392c.27 1.86 7.392 17.679 15.277 21.217 7.885 3.538 11.56-1.136 9.63-5.63-1.93-4.493-7.206-8.745-5.354-19.565l-19.553 3.978z"
        fill="#FFB000"></path>
    <path
        d="M57.391 253.714c.417-.341.804-.632 1.174-.893l.511 1.155c1.93 4.494-1.739 9.166-9.63 5.63a14.89 14.89 0 01-3.932-2.741c3.958.153 8.442-.383 11.877-3.151z"
        fill="#fff"></path>
    <path d="M53.656 258.266a5.503 5.503 0 011.777 1.178c.31.327.566.704.755 1.115" stroke="#201C1D"
        stroke-linecap="round" stroke-linejoin="round"></path>
    <path d="M56.965 256.144c.354.074.875.762 1.887 1.547.484.368.244.549.244.549" stroke="#201C1D"
        stroke-linecap="round" stroke-linejoin="round"></path>
    <path
        d="M19.349 201.29c-1.304-.852-6.637-7.325-11.267-1.265-4.63 6.061.278 13.193 2.508 14.411 2.23 1.219 8.759-13.146 8.759-13.146z"
        fill="#FFB000"></path>
    <path
        d="M182.725 180.831a10.244 10.244 0 00-5.041-.266c-.691.191-1.363.445-2.008.758 3.326.813 7.254 2.165 4.72 2.991-1.23.397-2.698.779-3.62 1.1.929.301 1.946.594 2.964.874 2.418.103 4.255.349 3.716 1.858a3.308 3.308 0 01-1.196 1.325 50.22 50.22 0 01-4.583 3.415.509.509 0 00.212.246c1.571 1.106 7.513 1.216 4.563 2.493a22.899 22.899 0 01-4.515 1.407 11.02 11.02 0 011.68 1.543c3.743 4.167-3.101 2.316-5.102 2.732-2.001.417 2.684 9.856-3.258 20.886-5.88 10.928-11.372 12.062-11.372 12.062s5.127 17.366-4.132 21.9c-7.976 3.905-11.024-8.877-15.572-12.679l-10.388 1.598c1.538 9.641-4.144 20.341-12.756 17.008-4.919-1.904-2.743-9.709-4.196-15.417 0 0-11.83 0-31.253-10.749-12.896-7.137-27.37 2.345-36.189 2.345-5.69 7.965-7.9 6.717-9.52 11.341-1.563 4.48 1.599 10.928-1.188 16.74-2.786 5.813-13.307 2.739-19.807-13.38-9.99-24.775-7.728-38.095 1.829-51.357 8.9-12.351 35.476-23.986 57.895-21.04 17.292 2.272 24.686 7.93 31.779 4.989 3.631-1.505-.253-3.739-3.061-6.867-2.165-2.398 1.428-2.446 5.464-2.671a11.66 11.66 0 00-1.284-2.295c-1.325-1.905 0 0 3.415.588 2.63.45 1.66-1.203-.3-2.166a14.898 14.898 0 00-1.981-.607c-2.889-.349.171-1.496 2.971-2.172l1.51-.608c.075-.431-2.049-.765-3.279-.833-1.632-.082.499-1.804 2.732-2.097 1.557-.198 4.481-.615 6.694-1.025a21.756 21.756 0 00-2.152.041c-4.972.232-7.889-3.941-9.091-9.459a148.09 148.09 0 01-3.415-27.764c-.375-12.294 5.109-12.465 11.864-5.177a15429.99 15429.99 0 0119.698 21.371 72.684 72.684 0 019.985.321c3.961.437 8.032.389 9.562.908 0 0 13.831-13.885 21.719-22.395 7.889-8.51 10.997-.922 10.621 10.245-.43 12.84-2.589 21.767-5.928 26.944-2.801 4.357-7.759 5.314-9.405 6.83-.895.806 2.172 1.311 4.33.867 4.781-.97 7.554-1.53 4.993.581-2.562 2.11-4.781 1.591-2.555 2.11 2.227.519 5.908.109 2.555 1.769a14.848 14.848 0 01-4.781 1.236l.041.144h.362c3.865.205 5.621 1.728 6.481 4.835.861 3.108 2.964 3.873-1.427 2.623z"
        fill="#FFB000"></path>
    <path
        d="M103.326 178.802c2.432 2.732 5.758 5.232 3.9 6.229 3.859 2.514 9.624 9.391 13.36 15.286 8.366 13.202 8.394 33.733 8.879 38.377a40.649 40.649 0 001.168 6.332l9.561-1.469v.212c.615-.594 1.81-1.325 4.098-2.049 3.832-1.25 7.336-2.992 12.609-5.321.088-.683 3.005-2.049 3.005-2.049s5.464-1.147 11.372-12.061c5.942-11.024 1.25-20.49 3.258-20.886 2.008-.397 8.879 1.461 5.102-2.732a12.268 12.268 0 00-1.687-1.551 21.31 21.31 0 004.514-1.407c2.923-1.277-2.985-1.366-4.562-2.486a.581.581 0 01-.212-.246 48.393 48.393 0 004.583-3.415 3.365 3.365 0 001.202-1.325c.54-1.509-1.305-1.755-3.722-1.858h-.103a7.335 7.335 0 01-4.849-.744c-3.231-1.83-5.853-9.842-6.27-15.962-.417-6.119-3.578-9.207-9.468-8.283-1.242.195-5.281 1.27-5.187 0 .562-7.605-1.668-12.452-3.668-16.952-3.814-.365-7.661-.699-11.495-.672 5.164 5.675 10.402 16.612 9.888 17.875-.514 1.263-5.706 2.216-13.1-.251-4.904-1.637-8.83-2.871-12.669.251-3.616 2.941-3.511 7.233-3.183 11.502.328 4.269-4.282 6.632-10.832 2.978-4.064.225-7.65.273-5.492 2.677z"
        fill="#fff"></path>
    <path
        d="M161.242 245.169l.051-.044c-.125 5.309-1.638 9.871-5.151 11.139-5.629 2.025-8.672-1.376-10.294-4.758 2.804.502 5.695.128 8.279-1.072 2.285-1.13 4.891-3.361 7.115-5.265z"
        fill="#fff"></path>
    <path
        d="M13.424 250c2 5.833 7.8 17.8 15 19 9 1.5 8-10 7-15.5m1-6c1.13-2.827 6.025-8.411 17-11.262m6.5-1.238c-2.371.304-4.533.727-6.5 1.238m0 0c-.167 2.087-.1 7.062 1.5 10.262 2 4 8.5 11 2.5 13.5s-12-2-17-9.5m70.5-8.5c1 1.666 2.9 6.3 2.5 11.5-.5 6.5 2.5 8.5 5 9s13 .5 11.5-17.5c7.54-.397 20.029-3.192 30-10.535m14.5-21.965c-2.105 9.875-7.72 16.971-14.5 21.965M144.424 249c1.166 3.5 5.1 9.9 11.5 7.5 6.4-2.4 6-14.5 4-22.035m-52.5-50.965c-1-3.5-4.5-3-4.5-5.5 0-2 4.333-2.167 6.5-2l-3-3.5m1-2l5-2m40.5-24c-3.334-.667-11.3-1.8-16.5-1-3.167-3.5-10.8-11.8-16-17-6.5-6.5-10-10-13-8.5s-4.5 7-2 22m73.5 23c2-.5 5-4.5 6.5-10 1.792-6.572 2.5-14.5 2.5-19.5"
        stroke="#000" stroke-linecap="round" stroke-linejoin="round"></path>
    <path
        d="M118.193 262.498c-4.571-1.251-4.738-5.152-4.678-8.75 3.973 0 5.61 4.602 10.264 4.337 1.341-.092 2.312-.271 3.628 0-1.776 2.924-4.368 5.739-9.214 4.413z"
        fill="#fff"></path>
    <path
        d="M35.774 257.166c.28 3.08.498 6.386-.998 9.5h-.02c-1.92 4.002-7.916 3.333-13.291-2.425a14.133 14.133 0 007.731-1.652 28.134 28.134 0 006.578-5.423z"
        fill="#fff"></path>
    <path
        d="M132.476 144.332c-1.196-1.346-17.963-23.27-22.163-24.704-3.135-1.072-4.037 1.448-3.245 10.928.793 9.48 2.814 26.951 6.4 30.161a6.655 6.655 0 005.689 1.414 29.49 29.49 0 012.261-6.571 17.754 17.754 0 013.545-5.252s-5.068-3.552-1.277-2.049c3.79 1.503 4.323 1.311 1.079-2.295-3.245-3.606-3.552-5.969.526-1.892 4.077 4.078 5.846 4.494 2.438.342-2.111-2.561-2.466-3.88-1.639-3.415a71.92 71.92 0 006.386 3.333z"
        fill="#FFD4E9"></path>
    <path
        d="M159.065 145.739c.922-1.243 13.926-15.709 17.211-19.459 3.47-3.988 6.523-6.468 8.121-5.04 3.77 3.415.635 24.444-1.912 32.169-3.285 9.931-11.98 11.071-11.98 11.071s.396-1.762-1.496-6.058a24.462 24.462 0 00-3.456-5.464s5.662-5.628 1.674-3.258c-3.989 2.37-4.289 3.982-1.919-.184 2.37-4.167 4.671-7.056 1.085-4.242-3.585 2.814-5.819 4.419-3.947 1.517 1.871-2.903 5.156-7.875.628-3.415s-4.009 2.363-4.009 2.363z"
        fill="#FFD4E9"></path>
    <path
        d="M136.679 150.953c-.949.403-5.081 2.227-2.609 2.992a3.161 3.161 0 003.586-.945 3.14 3.14 0 00.601-1.166c.239-1.12-1.578-.881-1.578-.881z"
        fill="#fff"></path>
    <path
        d="M159.515 150.999c.808.452 4.314 2.447 2.044 2.912a2.815 2.815 0 01-2.272-.347 2.825 2.825 0 01-1.259-1.923c-.104-1.016 1.487-.642 1.487-.642z"
        fill="#fff"></path>
    <path d="M157.033 158.824c1.201-2.401 4.199-1.7 6.272.852" stroke="#333" stroke-linecap="round"
        stroke-linejoin="round"></path>
    <path d="M144.431 158.828c-1.438-2.267-4.35-1.265-6.153 1.484" stroke="#333"
        stroke-linecap="round" stroke-linejoin="round"></path>
    <path d="M29.688 266.167c.572.283 1.047.73 1.366 1.284a9.24 9.24 0 01.82 1.755" stroke="#201C1D"
        stroke-linecap="round" stroke-linejoin="round"></path>
    <path d="M32.713 264.309c.492.418.91.917 1.236 1.475.333.433.566.935.683 1.468" stroke="#201C1D"
        stroke-linecap="round" stroke-linejoin="round"></path>
    <path d="M118.471 258.572a5.78 5.78 0 01-.469 2.055c-.452 1.018-.761 1.536-.761 1.536"
        stroke="#201C1D" stroke-linecap="round" stroke-linejoin="round"></path>
    <path d="M122.002 259.286s-.369.976-.869 2.077a5.828 5.828 0 01-.938 1.54" stroke="#201C1D"
        stroke-linecap="round" stroke-linejoin="round"></path>
    <path d="M154.332 252.757c.385.807.565 1.697.523 2.59-.165 1.169-.303 1.285-.303 1.285"
        stroke="#201C1D" stroke-linecap="round" stroke-linejoin="round"></path>
    <path d="M157.602 251.639c.188.954.214 1.932.076 2.895a5.115 5.115 0 01-.505 1.325"
        stroke="#201C1D" stroke-linecap="round" stroke-linejoin="round"></path>
    <path
        d="M126.66 182.211c1.309-.416 48.392-17.485 49.095-17.716.703-.23 1.715 2.224 1.637 2.778-.078.554-.248 1.069-.248 1.069 6.019 8.085 17.929 24.511 17.416 25.537-.094.188-1.143.776-2.867 1.637l-4.645 9.136s2.328 1.278 1.978 2.428c-.364 1.196-45.433 20.456-46.822 20.135-1.111-.256-12.145-20.052-17.523-29.917v-1.782c-.427 0-1.432-.327-2.03-1.637-.598-1.311 2.547-11.203 4.009-11.668z"
        fill="#fff"></path>
    <path
        d="M127.245 185.01c.154.166.31.337.466.511m0 0l-3.03 7.396m3.03-7.396a60.398 60.398 0 011.826 2.139m-4.856 5.257l1.979 1.603v1.389l16.399 28.742 43.274-18.592.715-1.407m-62.367-11.735c1.073-.099 3.546-1.289 4.856-5.257m62.156 7.856c1.724-.861 2.773-1.449 2.867-1.637.513-1.026-11.397-17.452-17.416-25.537 0 0 .17-.515.248-1.069.078-.554-.934-3.008-1.637-2.778-.703.231-47.786 17.3-49.095 17.716-1.462.465-4.607 10.357-4.009 11.668.598 1.31 1.603 1.637 2.03 1.637v1.782c5.378 9.865 16.412 29.661 17.523 29.917 1.389.321 46.458-18.939 46.822-20.135.35-1.15-1.978-2.428-1.978-2.428m4.645-9.136c-9.986 4.992-42.625 19.195-43.719 18.557-1.164-.679-10.694-16.946-18.437-26.413m62.156 7.856l-4.645 9.136m-40.435 10.373c-1.013 1.283-3.028 4.009-2.978 4.654.049.646.505 1.353.505 1.353s-1.352.731-1.081 1.75m-15.348-29.865l6.984 12.321m-2.029-7.94l9.538 15.612"
        stroke="#26A9E0" stroke-linecap="round" stroke-linejoin="round"></path>
    <path
        d="M124.3 203.753c1.564-3.226 7.088-4.196 9.654-4.277l4.4 7.332c-3.813-.88-9.329 1.018-11.61 2.078.196-2.151 2.037-3.87 3.055-4.4-1.955-.978-4.399-.855-5.499-.733z"
        fill="#fff" stroke="#26A9E0" stroke-linecap="round" stroke-linejoin="round"></path>
    <path
        d="M141.629 175.829c-4.954-2.45-6.07-5.715-6.501-5.943l27.811-1.954c2.246 5.673-6.524 9.055-9.423 4.745-2.066 4.469-8.743 4.707-11.887 3.152z"
        fill="#fff"></path>
    <path
        d="M133.307 170.214s1.39-.556 1.821-.328m0 0c.431.228 1.547 3.493 6.501 5.943 3.144 1.555 9.821 1.317 11.887-3.152 2.899 4.31 11.669.928 9.423-4.745l-27.811 1.954z"
        stroke="#fff"></path>
    <path
        d="M133.307 170.214s1.39-.556 1.821-.328c.431.228 1.547 3.493 6.501 5.943 3.144 1.555 9.821 1.317 11.887-3.152 2.899 4.31 11.669.928 9.423-4.745"
        stroke="#000" stroke-linecap="round" stroke-linejoin="round"></path>
    <path
        d="M152.966 169.799a28.357 28.357 0 004.996-3.039c1.895-1.572-.317-3.022-3.304-3.148-2.987-.125-7.03.547-7.954 1.688-.924 1.141.537 2.69 2.087 3.125 1.549.435 4.175 1.374 4.175 1.374z"
        fill="#333"></path>
    <path
        d="M152.12 164.545a8.473 8.473 0 013.879.32c1.342.546 1.867 1.233.196 1.147-1.67-.085-2.69-.438-4.168-.132-1.479.307-2.493.002-1.867-.573a4.463 4.463 0 011.96-.762z"
        fill="#fff"></path>
    <path
        d="M59.17 239.125c7.818-1.104 21.592-50.589 7.953-61.197-10.873-8.457-7.57 48.325 1.412 57.308 10.608 10.608 30.49-54.974 17.103-55.761-14.75-.868-11.044 56.78 0 62.302"
        stroke="#26A9E0" stroke-linecap="round"></path>
    <path
        d="M64.939 176.88c-2.64-15.835-7.436-54.729-8.554-87.144m21.423-14.438c-1.552 23.442-4.619 73.345-2.756 99.054m22.783-80.89c-2.95 19.405-8.54 62.731-11.52 85.831"
        stroke="#26A9E0" stroke-linecap="round" stroke-linejoin="round"></path>
    <path d="M64.25 82.439c-2.884-1.099-6.443-2.096-9.56-2.096-1.703 0-3.486.262-5.108.262"
        stroke="#26A9E0" stroke-width="1.3" stroke-linecap="round"></path>
    <path
        d="M84.42 64.627c-4.3-1.146-8.81-1.028-13.213-1.295-1.08-.065-2.177-.014-3.26-.014-1.46 0 2.903-.32 4.351-.51 4.559-.594 8.986.248 13.432.248"
        stroke="#26A9E0" stroke-width="1.3" stroke-linecap="round"></path>
    <path
        d="M76.079 44.77c-.97 17.215-9.9 32.025-14.245 37.278 1.615 2.673 4.148 8.318 1.364 9.522-2.784 1.204-3.982-2.32-4.233-4.233-.596 1.693-2.333 4.91-4.515 4.233-2.182-.677-.909-4.546 0-6.396-.972.658-3.179 1.693-4.233.564-1.053-1.129 1.36-3.567 2.54-4.327-24.144-9.974-47.04-46.365-31.877-56.979 12.026-8.417 22.063 3.164 25.497 9.427 1.819-6.667 7.88-15.457 15.457-16.063 7.577-.606 15.457 5.456 14.245 26.974z"
        fill="#fff" stroke="#26A9E0" stroke-linecap="round" stroke-linejoin="round"></path>
    <path
        d="M80.938 54.823c2.022 15.36 9.726 26.48 14.513 32.615-1.646 2.792-4.547 8.647-2.991 9.126 1.556.478 4.239-2.593 5.386-4.19-.25 2.544-.21 7.631 1.945 7.631 2.154 0 1.445-7.83 1.046-11.52 7.48-2.843 17.504-7.93 24.685-14.811 8.884-8.514 17.503-21.095 9.724-29.473-8.02-8.639-21.193-1.645-26.18 2.843-1.546-5.835-7.136-19.188-16.606-17.953-10.323 1.346-13.766 8.677-11.522 25.732z"
        fill="#fff" stroke="#26A9E0" stroke-linecap="round" stroke-linejoin="round"></path>
    <path
        d="M102.755 90.035c-2.146-.409-4.376-1.14-6.548-1.295-1.141-.081-2.223-.276-3.347-.48-.546-.1-1.827.034-.539-.073 2.582-.215 5.073-.51 7.67-.51 1.541 0 3.134.263 4.598.263"
        stroke="#26A9E0" stroke-width="1.3" stroke-linecap="round"></path>
    <path d="M65.3 81.129c-2.773-.594-5.812-.707-8.645-.786-1.982-.055-4-.262-6.024-.262"
        stroke="#26A9E0" stroke-width="1.3" stroke-linecap="round"></path>
    <path
        d="M18.28 196.158c-.398-1.112-1.907-3.288-4.766-3.097M1.6 206.165c-.318 1.589-.429 5.242 1.668 7.149m1.242-2.291c.2.769.943 2.507 2.307 3.31"
        stroke="#0D0C22" stroke-linecap="round" stroke-linejoin="round"></path>
</svg>