<svg width="32" height="32" viewBox="0 0 32 32" fill="#fff" xmlns="http://www.w3.org/2000/svg"
    class="header-orders__icon header-orders__icon--desktop">
    <path fill-rule="evenodd" clip-rule="evenodd"
        d="M14.643 2.768a2.85 2.85 0 012.714 0l11.048 5.984a.85.85 0 01.445.747v11.809a2.85 2.85 0 01-1.493 2.506l-10.952 5.933a.85.85 0 01-.81 0L4.642 23.814a2.85 2.85 0 01-1.492-2.506V9.499a.85.85 0 01.445-.747l11.047-5.984zm1.905 1.495a1.15 1.15 0 00-1.096 0l-3.66 1.982 10.21 5.471L26.2 9.491l-9.652-5.228zm10.602 6.649l-10.3 5.459v11.201l9.698-5.253a1.15 1.15 0 00.602-1.011V10.912zm-12 16.66V16.371l-10.3-5.46v10.397c0 .422.231.81.602 1.011l9.698 5.253zM5.8 9.492L16 14.896l4.193-2.222-10.19-5.46L5.8 9.49z">
    </path>
    <path fill-rule="evenodd" clip-rule="evenodd"
        d="M14.607 2.703c.869-.471 1.917-.471 2.786 0L28.44 8.687a.925.925 0 01.485.813v11.809c0 1.073-.588 2.06-1.532 2.572L16.44 29.813a.925.925 0 01-.88 0L4.606 23.881a2.925 2.925 0 01-1.532-2.572V9.5c0-.34.186-.652.484-.813l11.048-5.984zm2.715.132a2.775 2.775 0 00-2.644 0L3.631 8.819a.775.775 0 00-.406.681v11.809c0 1.018.558 1.955 1.453 2.44l10.953 5.933c.23.124.508.124.738 0l10.953-5.933a2.775 2.775 0 001.453-2.44V9.5a.775.775 0 00-.406-.681L17.322 2.835zm-.81 1.494a1.075 1.075 0 00-1.024 0L11.95 6.246l10.052 5.386 4.04-2.14-9.53-5.163zm-1.096-.132a1.225 1.225 0 011.167 0l9.653 5.229a.075.075 0 010 .132l-4.199 2.225a.075.075 0 01-.07 0l-10.21-5.47a.075.075 0 010-.133l3.66-1.983zM9.966 7.15a.075.075 0 01.072 0l10.19 5.46a.075.075 0 010 .132l-4.193 2.222a.075.075 0 01-.07 0l-10.2-5.406a.075.075 0 01-.001-.132L9.966 7.15zm.036.15L5.958 9.492 16 14.813l4.033-2.137L10.003 7.3zm-5.19 3.548a.075.075 0 01.073-.002l10.3 5.46c.025.012.04.038.04.066v11.2a.075.075 0 01-.11.067l-9.699-5.253a1.225 1.225 0 01-.641-1.077V10.912c0-.026.014-.05.036-.064zm22.377 0a.075.075 0 01.036.064V21.31c0 .45-.246.863-.642 1.077l-9.697 5.253a.075.075 0 01-.111-.066V16.372c0-.028.015-.054.04-.067l10.3-5.459a.075.075 0 01.074.002zm-22.264.19v10.27c0 .395.216.758.563.946l9.587 5.193v-11.03l-10.15-5.38zm12 5.379v11.03l9.587-5.193c.347-.188.563-.55.563-.945V11.037l-10.15 5.38z">
    </path>
</svg>