<svg width="32" height="32" viewBox="0 0 32 32" fill="#fff" xmlns="http://www.w3.org/2000/svg"
    class="header-profile__icon header-profile__icon--desktop">
    <path fill-rule="evenodd" clip-rule="evenodd"
        d="M17.163 3.11a6.188 6.188 0 00-3.446.327 5.962 5.962 0 00-2.695 2.128A5.674 5.674 0 0010 8.805v.002a5.718 5.718 0 001.773 4.116A6.11 6.11 0 0016 14.61H16a6.145 6.145 0 003.318-.969 5.85 5.85 0 002.22-2.602 5.63 5.63 0 00.345-3.375 5.75 5.75 0 00-1.655-2.978 6.065 6.065 0 00-3.065-1.577zm1.68 3.018a3.75 3.75 0 011.082 1.943 3.622 3.622 0 01-.224 2.178 3.808 3.808 0 01-.964 1.331 3.978 3.978 0 01-.5.38A4.146 4.146 0 0116 12.61c-.478 0-.945-.082-1.383-.236a4.035 4.035 0 01-1.458-.894A3.718 3.718 0 0112 8.805c0-.743.23-1.474.664-2.098a3.963 3.963 0 011.793-1.412 4.2 4.2 0 012.331-.22c.783.15 1.497.518 2.055 1.053z">
    </path>
    <path fill-rule="evenodd" clip-rule="evenodd"
        d="M8.691 19.22a14.206 14.206 0 0114.618 0A7.603 7.603 0 0127 25.74V27c0 1-1 2-2 2H7c-1 0-2-1-2-2v-1.26a7.603 7.603 0 013.691-6.52zm13.589 1.715a12.206 12.206 0 00-12.56 0A5.603 5.603 0 007 25.739v1.262h18v-1.262a5.603 5.603 0 00-2.72-4.804z">
    </path>
</svg>